<svg width="125" height="16" viewBox="0 0 125 16" fill="none" xmlns="http://www.w3.org/2000/svg">
<path d="M0.0283012 0.571289H17.179V2.40455H10.4261V12.7389H6.7247V2.40455H0L0.0283012 0.571289ZM16.4444 3.92958H19.6089V5.633H19.6655C19.7785 5.38969 19.9763 5.16255 20.2588 4.9354C20.5414 4.70826 20.8804 4.4974 21.3042 4.31895C21.6998 4.12426 22.1519 3.9782 22.6605 3.86466C23.1408 3.75112 23.6494 3.6862 24.158 3.6862C24.5536 3.6862 24.8361 3.70243 24.9774 3.70243C25.1187 3.71866 25.2882 3.73489 25.4295 3.73489V5.6006C25.2034 5.56815 24.9491 5.55192 24.6948 5.53569C24.4405 5.51946 24.2145 5.50323 23.9602 5.50323C23.3951 5.50323 22.8583 5.56815 22.3497 5.69792C21.8411 5.82769 21.4173 6.02237 21.0217 6.26575C20.6544 6.52535 20.3436 6.83357 20.1175 7.20672C19.8915 7.57986 19.7785 8.01786 19.7785 8.5046V12.6903H16.3879L16.4444 3.92958ZM40.9697 12.7389H37.6356V11.5059H37.5791C37.1553 11.9602 36.5337 12.3009 35.7143 12.5767C34.8949 12.8525 34.0472 12.9823 33.1996 12.9823C31.1935 12.9823 29.7242 12.7065 28.8201 12.1224C27.9159 11.5546 27.4638 10.6785 27.4638 9.52666V3.92958H30.8544V9.33197C30.8544 10.1107 31.1087 10.6623 31.6456 10.9705C32.1542 11.2951 32.8888 11.4573 33.8212 11.4573C34.5276 11.4573 35.1209 11.3924 35.6013 11.2626C36.0816 11.1328 36.4772 10.9705 36.7597 10.7596C37.0705 10.5488 37.2683 10.2892 37.4096 9.99718C37.5509 9.70512 37.6074 9.38066 37.6074 9.03998V3.92958H40.998V12.7389H40.9697ZM46.7337 9.91603C46.8467 10.4839 47.2141 10.8732 47.8639 11.1166C48.5138 11.3437 49.3049 11.4573 50.2091 11.4573C50.5199 11.4573 50.8872 11.4411 51.2828 11.4086C51.6783 11.3761 52.0739 11.3275 52.413 11.2464C52.7803 11.1652 53.0628 11.0517 53.2889 10.8895C53.5149 10.7272 53.6279 10.5325 53.5997 10.2892C53.5714 10.0458 53.4302 9.83495 53.1193 9.67266C52.8085 9.51043 52.4412 9.39689 51.9892 9.28335C51.5371 9.18598 51.0002 9.10489 50.4069 9.03998C49.8135 8.97506 49.2202 8.89398 48.5986 8.81283C47.9769 8.73175 47.3553 8.63437 46.762 8.52083C46.1686 8.40723 45.66 8.26123 45.1797 8.05032C44.7276 7.85563 44.3321 7.61232 44.0778 7.30403C43.7952 6.9958 43.6539 6.63889 43.6539 6.1846C43.6539 5.69792 43.8517 5.30855 44.2755 4.98409C44.6711 4.65963 45.208 4.40003 45.8296 4.20535C46.4512 4.01066 47.1576 3.86466 47.9204 3.78357C48.6833 3.70243 49.4179 3.66998 50.0961 3.66998C50.8872 3.66998 51.6501 3.71866 52.3565 3.81597C53.0628 3.91335 53.741 4.05935 54.3061 4.28649C54.8994 4.4974 55.38 4.7894 55.747 5.13009C56.143 5.47077 56.369 5.8926 56.482 6.37929H52.9498C52.7803 5.90883 52.413 5.6006 51.8479 5.43838C51.2545 5.27609 50.6047 5.195 49.8418 5.195C49.6157 5.195 49.3049 5.21123 48.9941 5.22746C48.6551 5.25986 48.3725 5.29232 48.0617 5.35723C47.7792 5.42215 47.5249 5.51946 47.3271 5.633C47.1293 5.7466 47.0163 5.90883 47.0163 6.10352C47.0163 6.34689 47.1575 6.52535 47.4401 6.67135C47.7226 6.81735 48.09 6.93089 48.5703 7.04449C49.0224 7.1418 49.5592 7.22295 50.1526 7.2878C50.7459 7.35272 51.3675 7.43386 51.9892 7.51495C52.6108 7.59609 53.2041 7.6934 53.7975 7.807C54.3908 7.92055 54.9277 8.06655 55.38 8.27746C55.832 8.47215 56.227 8.71552 56.51 9.00752C56.792 9.29952 56.934 9.67266 56.934 10.0945C56.934 10.6136 56.736 11.0517 56.312 11.4248C55.888 11.7817 55.351 12.09 54.7016 12.3171C54.0518 12.5443 53.2889 12.7065 52.4977 12.82C51.6783 12.9174 50.8872 12.9823 50.0961 12.9823C49.1354 12.9823 48.2312 12.9174 47.4118 12.7876C46.5924 12.6578 45.8578 12.4631 45.2645 12.2198C44.6711 11.9602 44.1908 11.652 43.8517 11.2626C43.5127 10.8895 43.3149 10.4352 43.2866 9.8998H46.7055V9.91603H46.7337ZM57.894 3.92958H60.466V1.26889H63.856V3.91335H66.908V5.35723H63.856V10.062C63.856 10.2729 63.884 10.4352 63.913 10.5974C63.941 10.7435 64.026 10.8732 64.111 10.9705C64.224 11.0679 64.393 11.149 64.591 11.1977C64.817 11.2464 65.099 11.2788 65.495 11.2788C65.721 11.2788 65.975 11.2788 66.201 11.2626C66.427 11.2464 66.682 11.2301 66.908 11.1977V12.7065C66.54 12.7389 66.173 12.7552 65.806 12.7714C65.439 12.8038 65.099 12.8038 64.704 12.8038C63.8 12.8038 63.093 12.7552 62.557 12.6578C62.02 12.5605 61.596 12.4145 61.285 12.236C60.974 12.0413 60.776 11.8142 60.663 11.5384C60.55 11.2626 60.494 10.9219 60.466 10.565V5.37346H57.894V3.89712V3.92958ZM69.281 3.92958H72.474V5.13009H72.531C73.011 4.61095 73.661 4.25403 74.508 4.02689C75.356 3.79975 76.26 3.6862 77.277 3.6862C78.492 3.6862 79.538 3.79975 80.442 4.05935C81.346 4.30272 82.081 4.62718 82.674 5.06523C83.267 5.487 83.719 5.98997 84.002 6.55775C84.285 7.12557 84.454 7.74209 84.454 8.37477C84.454 8.97506 84.313 9.54289 84.059 10.0945C83.776 10.6461 83.38 11.149 82.844 11.5708C82.307 11.9927 81.629 12.3333 80.781 12.5929C79.933 12.8525 78.973 12.9823 77.842 12.9823C77.362 12.9823 76.854 12.9499 76.373 12.9012C75.893 12.8525 75.413 12.7714 74.96 12.6578C74.508 12.5443 74.085 12.3983 73.717 12.2198C73.322 12.0413 73.011 11.8304 72.757 11.6033H72.7V15.9999H69.309V3.92958H69.281ZM81.12 8.34237C81.12 7.953 81.035 7.56363 80.837 7.19049C80.668 6.81735 80.385 6.49289 80.018 6.20083C79.651 5.90883 79.199 5.68169 78.69 5.50323C78.153 5.32477 77.532 5.24369 76.854 5.24369C75.441 5.24369 74.367 5.51946 73.632 6.08729C72.926 6.65512 72.559 7.41763 72.559 8.3586C72.559 8.81283 72.644 9.21843 72.841 9.59157C73.039 9.96472 73.293 10.2892 73.689 10.565C74.056 10.8408 74.508 11.0517 75.045 11.2139C75.582 11.3761 76.175 11.4573 76.882 11.4573C77.673 11.4573 78.295 11.3599 78.831 11.1815C79.368 11.003 79.792 10.7596 80.159 10.4839C80.498 10.1919 80.753 9.86735 80.894 9.4942C81.035 9.10489 81.12 8.73175 81.12 8.34237ZM87.082 0.571289H90.472V2.40455H87.082V0.571289ZM87.082 3.92958H90.472V12.7389H87.082V3.92958ZM93.496 0.571289H96.886V12.7389H93.496V0.571289ZM107.228 12.9823C106.013 12.9823 104.911 12.8687 103.95 12.6253C102.989 12.382 102.198 12.0737 101.52 11.6682C100.87 11.2626 100.362 10.7597 100.023 10.1919C99.684 9.62403 99.486 8.99129 99.486 8.32615C99.486 7.66095 99.655 7.04449 100.023 6.47666C100.362 5.90883 100.87 5.42215 101.52 5.00032C102.17 4.59472 102.989 4.27026 103.95 4.04312C104.911 3.81598 106.013 3.6862 107.228 3.6862C108.443 3.6862 109.545 3.79975 110.505 4.04312C111.466 4.27026 112.257 4.59472 112.935 5.00032C113.585 5.40592 114.094 5.90883 114.433 6.47666C114.772 7.04449 114.969 7.66095 114.969 8.32615C114.969 9.00752 114.8 9.62403 114.433 10.1919C114.065 10.7597 113.585 11.2464 112.935 11.6682C112.285 12.0737 111.466 12.3983 110.505 12.6253C109.545 12.8525 108.471 12.9823 107.228 12.9823ZM107.228 11.4411C107.962 11.4411 108.64 11.3437 109.177 11.1652C109.742 10.9868 110.166 10.7435 110.533 10.4514C110.901 10.1594 111.155 9.81872 111.325 9.4618C111.494 9.08866 111.579 8.71552 111.579 8.32615C111.579 7.953 111.494 7.57986 111.325 7.20672C111.155 6.83357 110.901 6.50912 110.533 6.21706C110.166 5.92506 109.714 5.69792 109.177 5.51946C108.612 5.341 107.962 5.24369 107.228 5.24369C106.493 5.24369 105.815 5.341 105.278 5.51946C104.713 5.69792 104.289 5.94129 103.922 6.21706C103.554 6.50912 103.3 6.83357 103.131 7.20672C102.961 7.57986 102.876 7.953 102.876 8.32615C102.876 8.71552 102.961 9.08866 103.131 9.4618C103.3 9.83495 103.554 10.1594 103.922 10.4514C104.289 10.7435 104.741 10.9868 105.278 11.1652C105.843 11.3599 106.493 11.4411 107.228 11.4411ZM115.987 3.92958H118.558V1.26889H121.948V3.91335H125V5.35723H121.948V10.062C121.948 10.2729 121.977 10.4352 122.005 10.5974C122.033 10.7435 122.118 10.8732 122.203 10.9705C122.316 11.0679 122.485 11.149 122.683 11.1977C122.909 11.2464 123.192 11.2788 123.587 11.2788C123.813 11.2788 124.068 11.2788 124.294 11.2626C124.52 11.2464 124.774 11.2301 125 11.1977V12.7065C124.633 12.7389 124.265 12.7552 123.898 12.7714C123.531 12.8038 123.192 12.8038 122.796 12.8038C121.892 12.8038 121.186 12.7552 120.649 12.6578C120.112 12.5605 119.688 12.4145 119.377 12.236C119.066 12.0413 118.869 11.8142 118.756 11.5384C118.643 11.2626 118.586 10.9219 118.558 10.565V5.37346H115.987V3.89712V3.92958Z" fill="black"/>
</svg>
